<svg viewBox="0 0 60 60" xml:space="preserve" xmlns="http://www.w3.org/2000/svg" enable-background="new 0 0 60 60"><path d="M59.909 11.709a1.271 1.271 0 0 0-.044-.324l-.146.042c-.002-.003-.003-.006-.006-.008l.149-.044A15.434 15.434 0 0 0 47 .14V0H29v.001H14.998C8.069.013 1.959 4.689.142 11.362a1.292 1.292 0 0 0-.045.338 1.155 1.155 0 0 0-.097.46V60h60V12.16c0-.16-.033-.312-.091-.451zM45.93 2.04A13.437 13.437 0 0 1 57.654 11H44.796a14.373 14.373 0 0 0-6.661-9h6.841l.954.04zM43 14c0 3.309-2.691 6-6 6s-6-2.691-6-6v-1h12v1zm-26-1h12v1c0 3.309-2.691 6-6 6s-6-2.691-6-6v-1zM31 2.001A12.39 12.39 0 0 1 42.742 11H31V2.001zM29 11H17.258A12.39 12.39 0 0 1 29 2.001V11zM15.023 2h6.841a14.373 14.373 0 0 0-6.661 9H2.348c1.864-5.334 6.94-8.989 12.675-9zM2 13h13v1c0 3.309-2.691 6-6 6H8c-3.309 0-6-2.691-6-6v-1zm52 31H41V33.5c0-3.584 2.916-6.5 6.5-6.5s6.5 2.916 6.5 6.5V44zM41 58V46h13v12H41zm17-38.714V58h-2V33.5c0-4.687-3.813-8.5-8.5-8.5S39 28.813 39 33.5V54a1 1 0 1 0 0 2v1h-1a1 1 0 0 0-1 1h-1a1 1 0 0 0-1-1h-1a1 1 0 0 0-1 1h-1a1 1 0 0 0-1-1h-1a1 1 0 0 0-1 1h-1a1 1 0 0 0-1-1h-1a1 1 0 0 0-1 1h-1a1 1 0 0 0-1-1h-1a1 1 0 0 0-1 1h-1a1 1 0 0 0-1-1h-1a1 1 0 0 0-1 1h-1a1 1 0 0 0-1-1h-1a1 1 0 0 0-1 1h-1a1 1 0 0 0-1-1h-1a1 1 0 0 0-1 1H8a1 1 0 0 0-1-1H6a1 1 0 0 0-1 1H4a1 1 0 0 0-1-1H2V19.286c.05.057.108.108.16.163a7.57 7.57 0 0 0 .579.562 8.49 8.49 0 0 0 .63.5c.121.087.246.169.372.249a7.332 7.332 0 0 0 .709.399c.105.053.21.106.318.154.143.063.289.119.435.174.108.041.215.083.325.119.157.051.317.092.477.133.106.027.21.059.318.082.181.039.365.065.55.091.092.013.182.032.275.042.281.029.564.046.852.046h1c.338 0 .669-.028.996-.069.094-.012.187-.028.28-.043.247-.04.489-.091.728-.153.083-.021.166-.04.248-.064.307-.09.607-.195.898-.32.045-.019.086-.043.13-.063a8.045 8.045 0 0 0 1.573-.944c.055-.042.113-.081.167-.125a7.93 7.93 0 0 0 .692-.629c.049-.05.094-.104.142-.156a8.373 8.373 0 0 0 .648-.791 7.92 7.92 0 0 0 .437-.679c.019-.033.043-.063.062-.096.019.033.043.063.062.096a8.17 8.17 0 0 0 1.085 1.47c.048.052.092.106.142.156.218.223.449.433.692.629.054.044.112.083.167.125.198.152.402.294.614.427.079.049.157.098.238.145.233.135.473.26.721.372.044.02.086.044.13.063.29.125.591.23.898.32.082.024.165.042.248.064.239.062.481.113.728.153.093.015.186.031.28.043.325.041.656.069.994.069s.669-.028.996-.069c.094-.012.187-.028.28-.043.247-.04.489-.091.728-.153.083-.021.166-.04.248-.064.307-.09.607-.195.898-.32.045-.019.086-.043.13-.063a8.045 8.045 0 0 0 1.573-.944c.055-.042.113-.081.167-.125a7.93 7.93 0 0 0 .692-.629c.049-.05.094-.104.142-.156a8.373 8.373 0 0 0 .648-.791 7.92 7.92 0 0 0 .437-.679c.019-.033.043-.063.062-.096.019.033.043.063.062.096a8.17 8.17 0 0 0 1.085 1.47c.048.052.092.106.142.156.218.223.449.433.692.629.054.044.112.083.167.125.198.152.402.294.614.427.079.049.157.098.238.145.233.135.473.26.721.372.044.02.086.044.13.063.29.125.591.23.898.32.082.024.165.042.248.064.239.062.481.113.728.153.093.015.186.031.28.043.325.041.656.069.994.069s.669-.028.996-.069c.094-.012.187-.028.28-.043.247-.04.489-.091.728-.153.083-.021.166-.04.248-.064.307-.09.607-.195.898-.32.045-.019.086-.043.13-.063a8.045 8.045 0 0 0 1.573-.944c.055-.042.113-.081.167-.125a7.93 7.93 0 0 0 .692-.629c.049-.05.094-.104.142-.156a8.373 8.373 0 0 0 .648-.791 7.92 7.92 0 0 0 .437-.679c.019-.033.043-.063.062-.096.019.033.043.063.062.096a8.17 8.17 0 0 0 1.085 1.47c.048.052.092.106.142.156.218.223.449.433.692.629.054.044.112.083.167.125.198.152.402.294.614.427.079.049.157.098.238.145.233.135.473.26.721.372.044.02.086.044.13.063.29.125.591.23.898.32.082.024.165.042.248.064.239.062.481.113.728.153.093.015.186.031.28.043.325.041.656.069.994.069h1c.288 0 .571-.017.851-.047.093-.01.183-.029.276-.042.185-.026.369-.053.55-.091.108-.023.212-.055.318-.082.16-.041.321-.082.477-.133.11-.036.217-.079.325-.119.147-.055.293-.111.435-.174.108-.048.213-.101.318-.154a7.332 7.332 0 0 0 .709-.399 7.74 7.74 0 0 0 1.001-.749 7.57 7.57 0 0 0 .579-.562c.053-.054.111-.105.161-.162zM52 20h-1c-3.309 0-6-2.691-6-6v-1h13v1c0 3.309-2.691 6-6 6z" fill="#bbbbbb" class="fill-000000"></path><path d="M4 53h33V25H4v28zm2-26h29v24H6V27z" fill="#bbbbbb" class="fill-000000"></path><path d="M15 38a.997.997 0 0 0 .707-.293l4-4a.999.999 0 1 0-1.414-1.414l-4 4A.999.999 0 0 0 15 38zM15 43a.997.997 0 0 0 .707-.293l2-2a.999.999 0 1 0-1.414-1.414l-2 2A.999.999 0 0 0 15 43zM18.29 37.29c-.181.189-.29.45-.29.71s.109.52.29.71c.189.18.45.29.71.29s.52-.11.71-.29c.18-.19.29-.45.29-.71s-.11-.521-.29-.71c-.37-.37-1.05-.37-1.42 0zM20.293 36.707a.997.997 0 0 0 1.414 0l3-3a.999.999 0 1 0-1.414-1.414l-3 3a.999.999 0 0 0 0 1.414zM23.293 37.293l-9 9a.999.999 0 1 0 1.414 1.414l9-9a.999.999 0 1 0-1.414-1.414zM25.29 35.29c-.181.189-.29.439-.29.71 0 .27.109.52.29.71.189.18.439.29.71.29.27 0 .52-.11.7-.29.19-.19.3-.45.3-.71 0-.271-.11-.521-.29-.71-.37-.37-1.05-.37-1.42 0zM8 54H7a1 1 0 1 0 0 2h1a1 1 0 1 0 0-2zM3 56h1a1 1 0 1 0 0-2H3a1 1 0 1 0 0 2zM16 54h-1a1 1 0 1 0 0 2h1a1 1 0 1 0 0-2zM12 54h-1a1 1 0 1 0 0 2h1a1 1 0 1 0 0-2zM24 54h-1a1 1 0 1 0 0 2h1a1 1 0 1 0 0-2zM20 54h-1a1 1 0 1 0 0 2h1a1 1 0 1 0 0-2zM32 54h-1a1 1 0 1 0 0 2h1a1 1 0 1 0 0-2zM28 54h-1a1 1 0 1 0 0 2h1a1 1 0 1 0 0-2zM36 54h-1a1 1 0 1 0 0 2h1a1 1 0 1 0 0-2z" fill="#bbbbbb" class="fill-000000"></path></svg>